<svg data-v-fde0c5aa="" xmlns="http://www.w3.org/2000/svg" viewBox="0 0 300 300" class="iconAbove"><!----><defs data-v-fde0c5aa=""><!----></defs><rect data-v-fde0c5aa="" fill="#ffff" x="0" y="0" width="300px" height="300px" class="logo-background-square"></rect><defs data-v-fde0c5aa=""><!----></defs><g data-v-fde0c5aa="" id="a3621eb0-7725-4fba-88f3-c0181cff572e" fill="#715de5" transform="matrix(5.087067049405218,0,0,5.087067049405218,16.082958468986085,173.14204746465566)"><path d="M0.77 8.74C0.77 11.17 2.28 13.51 5.60 13.51C7.39 13.51 8.93 12.43 9.20 11.17L9.16 11.13C8.19 11.94 7.06 12.28 5.96 12.28C3.64 12.28 2.49 10.19 2.49 8.06C2.49 5.38 3.93 4.07 5.49 4.07C6.52 4.07 7.62 4.63 8.33 5.74L8.41 5.74C8.68 5.46 8.97 4.93 8.97 4.62C8.97 3.79 7.11 3.29 5.84 3.29C2.65 3.29 0.77 6.01 0.77 8.74ZM10.96 12.22C10.96 13.16 11.61 13.44 12.22 13.44C13.43 13.44 13.78 12.57 13.78 12.57L13.72 12.53C13.72 12.53 13.47 12.73 13.19 12.73C12.70 12.73 12.57 12.28 12.56 11.80C12.52 10.57 12.50 9.30 12.50 8.05C12.50 6.57 12.56 5.10 12.56 3.68C12.56 2.81 11.69 2.66 10.75 2.65L10.71 2.70C10.71 2.70 10.89 2.98 10.96 4.27C11.00 5.17 11.03 6.43 11.03 7.74C11.03 9.37 10.96 11.07 10.96 12.22ZM14.52 9.98C14.52 12.04 15.90 13.51 17.78 13.51C20.13 13.51 20.61 11.73 20.61 11.73L20.54 11.66C20.54 11.66 19.49 12.46 18.34 12.46C16.90 12.46 16.11 11.31 16.11 9.63L16.17 9.60C16.17 9.60 16.90 10.00 17.71 10.00C18.94 10.00 20.41 9.49 20.41 8.09C20.41 7.14 19.68 6.09 17.84 6.09C15.79 6.09 14.52 8.05 14.52 9.98ZM16.13 8.96C16.13 8.43 16.66 6.73 17.65 6.73C18.45 6.73 18.75 7.42 18.75 8.08C18.75 8.95 18.06 9.30 17.43 9.30C16.84 9.30 16.13 9.07 16.13 8.96ZM23.46 12.29C23.83 13.47 25.35 13.51 25.35 13.51L27.47 7.66C27.85 6.61 28.20 6.37 28.20 6.37L28.20 6.30C28.20 6.30 27.99 6.19 27.55 6.19C26.33 6.19 27.06 6.73 25.17 12.15L25.10 12.15C24.49 10.60 23.58 7.98 23.28 6.78C23.17 6.34 22.65 6.19 22.18 6.19C21.69 6.19 21.41 6.24 21.13 6.30L21.13 6.37C21.39 6.59 21.55 6.92 21.69 7.21C22.20 8.33 23.07 11.02 23.46 12.29ZM30.56 12.29C30.93 13.47 32.45 13.51 32.45 13.51L34.57 7.66C34.94 6.61 35.29 6.37 35.29 6.37L35.29 6.30C35.29 6.30 35.08 6.19 34.65 6.19C33.43 6.19 34.16 6.73 32.27 12.15L32.20 12.15C31.58 10.60 30.67 7.98 30.38 6.78C30.27 6.34 29.75 6.19 29.27 6.19C28.78 6.19 28.50 6.24 28.22 6.30L28.22 6.37C28.49 6.59 28.64 6.92 28.78 7.21C29.30 8.33 30.17 11.02 30.56 12.29ZM37.23 4.97C37.74 4.97 38.18 4.54 38.18 4.03C38.18 3.51 37.74 3.08 37.23 3.08C36.72 3.08 36.29 3.51 36.29 4.03C36.29 4.54 36.72 4.97 37.23 4.97ZM36.46 12.31C36.46 13.15 37.10 13.44 37.72 13.44C38.92 13.44 39.27 12.57 39.27 12.57L39.21 12.53C39.21 12.53 38.96 12.73 38.68 12.73C38.00 12.73 37.98 11.89 37.98 11.26C37.98 10.22 38.05 8.54 38.05 7.06C38.05 6.50 37.49 6.16 36.86 6.16C36.64 6.16 36.41 6.22 36.18 6.29C36.19 6.29 36.51 6.72 36.51 9.91C36.51 10.70 36.46 11.51 36.46 12.31ZM40.59 10.79C40.59 12.36 41.06 13.51 42.70 13.51C44.41 13.51 44.87 11.90 44.87 11.90L44.80 11.84C44.80 11.84 44.00 12.50 43.32 12.50C42.24 12.50 42.11 11.33 42.11 9.94C42.11 8.88 42.15 7.22 42.15 7.22C42.15 7.22 43.13 7.25 43.29 7.25C43.79 7.25 44.07 7.13 44.07 6.54C44.07 6.47 44.07 6.24 44.06 6.16C44.06 6.16 43.88 6.30 43.30 6.30L42.15 6.30L42.43 4.77L42.11 4.66C41.93 5.12 40.60 6.30 40.00 6.30L40.00 6.89C40.54 7.06 40.64 7.11 40.64 8.30C40.64 8.83 40.59 9.88 40.59 10.79ZM45.32 11.63C45.32 12.66 46.00 13.51 47.18 13.51C48.06 13.51 48.76 13.02 49.08 12.43L49.14 12.46C49.15 13.20 49.76 13.44 50.33 13.44C51.53 13.44 51.88 12.57 51.88 12.57L51.83 12.53C51.83 12.53 51.58 12.73 51.30 12.73C50.61 12.73 50.60 11.72 50.60 11.17L50.60 11.00C50.60 10.23 50.64 9.30 50.64 8.55C50.64 7.28 50.37 6.09 48.38 6.09C47.15 6.09 46.02 6.96 45.79 7.80L45.85 7.85C46.37 7.39 47.10 7.01 47.78 7.01C48.86 7.01 49.13 7.67 49.13 8.85L49.13 8.97C47.60 9.00 45.32 9.60 45.32 11.63ZM46.90 11.37C46.90 9.88 48.55 9.63 49.13 9.53C49.13 10.25 49.08 10.99 49.08 11.55C49.08 12.08 48.31 12.52 47.84 12.52C47.35 12.52 46.90 12.21 46.90 11.37Z"></path></g><defs data-v-fde0c5aa=""><!----></defs><g data-v-fde0c5aa="" id="4c7a32a8-e425-4dc7-9ad4-1613869a7eb2" stroke="none" fill="#715de5" transform="matrix(1.3811215270003212,0,0,1.3811215270003212,80.94392364998396,44.320457837836805)"><path d="M64.863 60.342c-1.602 0-3.574.212-5.859.625-3.197-3.389-6.529-8.343-8.88-13.203 2.332-9.824.781-11.8.267-12.458a2.773 2.773 0 00-2.217-1.084c-.367 0-.758.068-1.155.202-1.009.335-1.771 1.045-2.2 2.058-1.234 2.884.459 7.806 2.2 11.595-1.491 5.925-3.984 13.018-6.611 18.77-6.618 3.03-10.133 6.006-10.449 8.848-.114 1.035.127 2.552 1.946 3.916a2.81 2.81 0 001.689.569c1.523 0 3.066-1.172 4.857-3.678 1.302-1.83 2.701-4.326 4.16-7.422 4.674-2.045 10.456-3.894 15.411-4.926 2.76 2.646 5.227 3.988 7.355 3.988 1.562 0 2.904-.717 3.875-2.08 1.008-1.416 1.236-2.686.684-3.77-.678-1.313-2.338-1.95-5.073-1.95zM33.629 77.229c-.817-.628-.771-1.048-.752-1.211.11-.97 1.628-2.691 5.358-4.788-2.825 5.225-4.345 5.918-4.606 5.999zm13.89-39.592c.117-.273.254-.368.424-.423.078-.026.13-.039.169-.046.267.394.569 1.963 0 5.657-.687-2.144-1.042-4.137-.593-5.188zm-3.184 27.551a125.007 125.007 0 004.668-13.206c1.959 3.522 4.317 6.943 6.674 9.681a87.415 87.415 0 00-11.342 3.525zm22.52-.835c-.533.755-1.074.85-1.479.85-.938 0-2.193-.6-3.613-1.689a25.152 25.152 0 013.1-.234c1.557 0 2.182.237 2.396.352-.038.121-.136.355-.404.721z"></path><path d="M73.288 24.395l-9.682-9.681C61.014 12.121 55.893 10 52.226 10H28.665c-3.667 0-6.667 3-6.667 6.667v66.667c0 3.667 3 6.667 6.667 6.667h42.67c3.667 0 6.667-3 6.667-6.667V35.775c0-3.667-2.121-8.788-4.714-11.38zm-14.652-9.16c1.033.555 1.96 1.182 2.614 1.836l9.681 9.68c.551.551 1.083 1.299 1.57 2.136h-8.865c-2.757 0-5-2.243-5-5v-8.652zm16.033 68.098a3.338 3.338 0 01-3.334 3.334h-42.67a3.337 3.337 0 01-3.333-3.334V16.667a3.337 3.337 0 013.333-3.333h23.561c.905 0 1.979.205 3.076.53v10.024c0 4.595 3.739 8.333 8.334 8.333h10.366c.416 1.264.667 2.517.667 3.555v47.557z"></path></g><!----></svg>