<svg data-v-423bf9ae="" xmlns="http://www.w3.org/2000/svg" viewBox="0 0 443 90" class="iconLeft"><!----><!----><!----><g data-v-423bf9ae="" id="d698d685-1a2a-41ec-acf8-85ca58b51249" fill="black" transform="matrix(5.484460426963632,0,0,5.484460426963632,78.78067045112616,-1.4533822345652112)"><path d="M5.08 13.94C6.23 13.94 7.21 13.48 7.97 12.59L6.83 11.34C6.38 11.84 5.87 12.17 5.21 12.17C3.84 12.17 2.88 11.05 2.88 9.14C2.88 7.27 3.84 6.15 5.12 6.15C5.78 6.15 6.26 6.41 6.69 6.82L7.83 5.54C7.21 4.93 6.29 4.37 5.12 4.37C2.69 4.37 0.77 6.15 0.77 9.21C0.77 12.31 2.73 13.94 5.08 13.94ZM13.93 13.94C14.80 13.94 15.29 13.79 16.02 13.55L15.55 12.04C15.12 12.22 14.78 12.28 14.46 12.28C13.89 12.28 13.34 11.98 13.34 11.10L13.34 3.65L9.27 3.65L9.27 5.28L11.28 5.28L11.28 11.00C11.28 12.81 12.18 13.94 13.93 13.94ZM21.42 13.94C22.34 13.94 23.38 13.62 24.16 13.12L23.49 11.87C22.88 12.21 22.33 12.38 21.70 12.38C20.68 12.38 19.82 11.90 19.68 10.81L24.36 10.81C24.39 10.63 24.44 10.25 24.44 9.88C24.44 7.94 23.32 6.45 21.18 6.45C19.33 6.45 17.57 7.87 17.57 10.21C17.57 12.57 19.26 13.94 21.42 13.94ZM19.66 9.44C19.84 8.48 20.48 8.04 21.22 8.04C22.16 8.04 22.58 8.60 22.58 9.44ZM28.25 13.78L30.62 13.78L33.17 6.64L31.19 6.64L30.10 10.05C29.88 10.77 29.69 11.51 29.48 12.25L29.43 12.25C29.22 11.51 29.02 10.77 28.80 10.05L27.71 6.64L25.63 6.64ZM36.65 13.78L39.02 13.78L41.57 6.64L39.59 6.64L38.50 10.05C38.28 10.77 38.09 11.51 37.88 12.25L37.83 12.25C37.62 11.51 37.42 10.77 37.20 10.05L36.11 6.64L34.03 6.64ZM46.17 5.80C46.98 5.80 47.57 5.26 47.57 4.42C47.57 3.58 46.98 3.00 46.17 3.00C45.36 3.00 44.77 3.58 44.77 4.42C44.77 5.26 45.36 5.80 46.17 5.80ZM42.85 13.78L49.67 13.78L49.67 12.11L47.29 12.11L47.29 6.64L42.85 6.64L42.85 8.25L45.23 8.25L45.23 12.11L42.85 12.11ZM55.83 13.94C56.73 13.94 57.48 13.75 58.10 13.55L57.74 12.07C57.33 12.22 56.88 12.33 56.35 12.33C55.34 12.33 54.89 11.90 54.89 10.81L54.89 8.25L57.83 8.25L57.83 6.64L54.89 6.64L54.89 3.70L52.93 4.54L52.93 6.64L51.09 6.64L51.09 8.25L52.84 8.25L52.84 10.82C52.84 12.68 53.62 13.94 55.83 13.94ZM61.94 13.94C62.83 13.94 63.70 13.51 64.40 12.96L64.46 12.96L64.61 13.78L66.29 13.78L66.29 9.66C66.29 7.50 65.10 6.45 63.15 6.45C61.96 6.45 60.86 6.87 60.19 7.43L60.91 8.78C61.42 8.37 62.08 8.11 62.75 8.11C63.69 8.11 64.16 8.51 64.23 9.18C60.94 9.39 59.65 10.21 59.65 11.80C59.65 13.01 60.54 13.94 61.94 13.94ZM62.59 12.35C62.01 12.35 61.63 12.12 61.63 11.65C61.63 11.00 62.19 10.54 64.23 10.42L64.23 11.65C63.74 12.05 63.21 12.35 62.59 12.35Z"></path></g><!----><g data-v-423bf9ae="" id="9ba54fb5-670e-40a7-97af-4edcb4d67bdb" transform="matrix(1.124985945400348,0,0,1.124985945400348,-24.25129617138458,-11.249859454003477)" stroke="none" fill="black"><path d="M64.863 60.342c-1.602 0-3.574.212-5.859.625-3.197-3.389-6.529-8.343-8.88-13.203 2.332-9.824.781-11.8.267-12.458a2.773 2.773 0 00-2.217-1.084c-.367 0-.758.068-1.155.202-1.009.335-1.771 1.045-2.2 2.058-1.234 2.884.459 7.806 2.2 11.595-1.491 5.925-3.984 13.018-6.611 18.77-6.618 3.03-10.133 6.006-10.449 8.848-.114 1.035.127 2.552 1.946 3.916a2.81 2.81 0 001.689.569c1.523 0 3.066-1.172 4.857-3.678 1.302-1.83 2.701-4.326 4.16-7.422 4.674-2.045 10.456-3.894 15.411-4.926 2.76 2.646 5.227 3.988 7.355 3.988 1.562 0 2.904-.717 3.875-2.08 1.008-1.416 1.236-2.686.684-3.77-.678-1.313-2.338-1.95-5.073-1.95zM33.629 77.229c-.817-.628-.771-1.048-.752-1.211.11-.97 1.628-2.691 5.358-4.788-2.825 5.225-4.345 5.918-4.606 5.999zm13.89-39.592c.117-.273.254-.368.424-.423.078-.026.13-.039.169-.046.267.394.569 1.963 0 5.657-.687-2.144-1.042-4.137-.593-5.188zm-3.184 27.551a125.007 125.007 0 004.668-13.206c1.959 3.522 4.317 6.943 6.674 9.681a87.415 87.415 0 00-11.342 3.525zm22.52-.835c-.533.755-1.074.85-1.479.85-.938 0-2.193-.6-3.613-1.689a25.152 25.152 0 013.1-.234c1.557 0 2.182.237 2.396.352-.038.121-.136.355-.404.721z"></path><path d="M73.288 24.395l-9.682-9.681C61.014 12.121 55.893 10 52.226 10H28.665c-3.667 0-6.667 3-6.667 6.667v66.667c0 3.667 3 6.667 6.667 6.667h42.67c3.667 0 6.667-3 6.667-6.667V35.775c0-3.667-2.121-8.788-4.714-11.38zm-14.652-9.16c1.033.555 1.96 1.182 2.614 1.836l9.681 9.68c.551.551 1.083 1.299 1.57 2.136h-8.865c-2.757 0-5-2.243-5-5v-8.652zm16.033 68.098a3.338 3.338 0 01-3.334 3.334h-42.67a3.337 3.337 0 01-3.333-3.334V16.667a3.337 3.337 0 013.333-3.333h23.561c.905 0 1.979.205 3.076.53v10.024c0 4.595 3.739 8.333 8.334 8.333h10.366c.416 1.264.667 2.517.667 3.555v47.557z"></path></g><!----></svg>